<svg width="16" height="16" viewBox="0 0 16 16" fill="none" xmlns="http://www.w3.org/2000/svg">
<g clip-path="url(#clip0_302_41)">
<path d="M9.36648 3.99998C10.0222 4.12927 10.6238 4.45267 11.0934 4.92819C11.563 5.40371 11.8788 6.0094 11.9998 6.66665M9.36648 1.33332C10.7253 1.4765 11.9946 2.07918 12.9644 3.0417C13.9342 4.00423 14.5464 5.26893 14.6998 6.62665M14.6998 11.2933V13.2933C14.6998 13.6469 14.5593 13.9861 14.3093 14.2361C14.0592 14.4862 13.7201 14.6267 13.3665 14.6267H13.2398C11.1884 14.4037 9.21781 13.7027 7.48648 12.58C5.87597 11.5561 4.51038 10.1905 3.48648 8.57998C2.34909 6.83894 1.63872 4.85401 1.41314 2.78665C1.39663 2.61193 1.41477 2.43568 1.46652 2.26798C1.51827 2.10029 1.60262 1.94447 1.71472 1.80944C1.82683 1.67442 1.96449 1.56286 2.1198 1.48115C2.27512 1.39945 2.44504 1.34921 2.61981 1.33332H4.73981C5.06335 1.33013 5.37701 1.4447 5.62232 1.65567C5.86763 1.86664 6.02786 2.15961 6.07314 2.47998C6.15845 3.11986 6.31497 3.7482 6.53981 4.35332C6.62951 4.59193 6.64892 4.85126 6.59575 5.10057C6.54258 5.34988 6.41905 5.57872 6.23981 5.75998L5.39314 6.60665C6.34218 8.27568 7.72411 9.65761 9.39315 10.6067L10.2398 9.75998C10.4211 9.58074 10.6499 9.45722 10.8992 9.40405C11.1485 9.35088 11.4079 9.37029 11.6465 9.45998C12.2516 9.68482 12.8799 9.84135 13.5198 9.92665C13.8437 9.97234 14.1394 10.1355 14.3508 10.385C14.5623 10.6345 14.6746 10.953 14.6665 11.28L14.6998 11.2933Z" stroke="white" stroke-width="2" stroke-linecap="round" stroke-linejoin="round"/>
</g>
<defs>
<clipPath id="clip0_302_41">
<rect width="16" height="16" fill="white"/>
</clipPath>
</defs>
</svg>
