<svg width="44" height="44" viewBox="0 0 44 44" fill="none" xmlns="http://www.w3.org/2000/svg">
<path d="M15.583 7.33325H10.9997C8.97463 7.33325 7.33301 8.97487 7.33301 10.9999V36.6666C7.33301 38.6917 8.97463 40.3333 10.9997 40.3333H21.9997" stroke="#FDB92F" stroke-width="2.5" stroke-linecap="round"/>
<path d="M28.417 7.33325H33.0003C35.0254 7.33325 36.667 8.97487 36.667 10.9999V27.4999" stroke="#FDB92F" stroke-width="2.5" stroke-linecap="round"/>
<path d="M14.667 11.7333V8.24992C14.667 7.74366 15.0774 7.33325 15.5837 7.33325C16.0899 7.33325 16.5081 6.92266 16.5948 6.42388C16.8664 4.86139 17.9193 1.83325 22.0003 1.83325C26.0813 1.83325 27.1342 4.86139 27.4059 6.42388C27.4926 6.92266 27.9108 7.33325 28.417 7.33325C28.9232 7.33325 29.3337 7.74366 29.3337 8.24992V11.7333C29.3337 12.3408 28.8412 12.8333 28.2337 12.8333H15.767C15.1595 12.8333 14.667 12.3408 14.667 11.7333Z" stroke="#FDB92F" stroke-width="2.5" stroke-linecap="round"/>
<path d="M28.417 37.5833L32.0837 41.2499L41.2503 32.0833" stroke="#22245A" stroke-width="2.5" stroke-linecap="round" stroke-linejoin="round"/>
</svg>
